<svg width="16" height="10" viewBox="0 0 16 10" fill="none" xmlns="http://www.w3.org/2000/svg">
<path d="M2.72064 1.00655L7.89398 6.17988L13.0673 1.00655C13.1908 0.883106 13.3373 0.785187 13.4986 0.71838C13.6599 0.651573 13.8327 0.617187 14.0073 0.617187C14.1819 0.617187 14.3547 0.651573 14.516 0.71838C14.6773 0.785187 14.8239 0.883106 14.9473 1.00655C15.0708 1.12999 15.1687 1.27654 15.2355 1.43782C15.3023 1.59911 15.3367 1.77197 15.3367 1.94655C15.3367 2.12112 15.3023 2.29399 15.2355 2.45527C15.1687 2.61656 15.0708 2.76311 14.9473 2.88655L8.82731 9.00655C8.30731 9.52655 7.46731 9.52655 6.94731 9.00655L0.827311 2.88655C0.703706 2.7632 0.605643 2.61668 0.538734 2.45538C0.471825 2.29408 0.437385 2.12117 0.437385 1.94655C0.437385 1.77192 0.471825 1.59901 0.538734 1.43772C0.605643 1.27642 0.703706 1.1299 0.827311 1.00655C1.34731 0.499881 2.20064 0.486548 2.72064 1.00655Z" fill="white"/>
</svg>
